<?xml version="1.0" standalone="no"?>
<!DOCTYPE svg PUBLIC "-//W3C//DTD SVG 20010904//EN"
 "http://www.w3.org/TR/2001/REC-SVG-20010904/DTD/svg10.dtd">
<svg version="1.0" xmlns="http://www.w3.org/2000/svg"
 width="260.000000pt" height="260.000000pt" viewBox="0 0 260.000000 260.000000"
 preserveAspectRatio="xMidYMid meet">
<metadata>
Created by potrace 1.14, written by Peter Selinger 2001-2017
</metadata>
<g transform="translate(0.000000,260.000000) scale(0.100000,-0.100000)"
fill="#000000" stroke="none">
<path d="M0 1300 l0 -1300 1300 0 1300 0 0 1300 0 1300 -1300 0 -1300 0 0
-1300z m1563 873 c-13 -2 -33 -2 -45 0 -13 2 -3 4 22 4 25 0 35 -2 23 -4z m91
-25 c-3 -4 2 -5 10 -2 23 9 95 -37 149 -95 45 -47 97 -139 97 -169 0 -7 19
-22 43 -32 23 -11 35 -20 27 -20 -28 -2 58 -28 114 -35 39 -5 56 -4 56 4 0 19
29 12 44 -12 17 -25 11 -101 -7 -90 -6 4 -8 -2 -4 -16 3 -13 3 -21 0 -18 -3 3
-18 -10 -35 -29 -33 -37 -72 -51 -223 -80 -173 -32 -184 -85 -50 -241 96 -111
116 -162 123 -312 3 -78 1 -112 -6 -107 -7 4 -9 -5 -5 -25 3 -23 1 -29 -8 -24
-9 6 -11 2 -7 -13 4 -12 2 -20 -2 -17 -12 7 -23 -32 -14 -46 4 -7 3 -9 -4 -6
-5 4 -21 -12 -36 -37 -55 -94 -189 -188 -336 -234 -115 -37 -182 -45 -337 -40
-125 5 -161 9 -233 33 -389 125 -570 396 -570 854 0 132 9 151 69 151 27 0 32
3 21 10 -17 11 -10 13 14 4 9 -3 13 -11 9 -17 -4 -6 -1 -7 6 -3 16 10 73 -13
64 -27 -3 -6 -1 -7 6 -3 15 9 83 -13 76 -24 -7 -11 109 -46 219 -67 147 -28
273 -4 325 63 29 37 27 60 -19 156 -90 187 -69 394 47 486 85 66 171 92 295
89 47 -1 84 -5 82 -9z m-877 -734 c-3 -3 -12 -4 -19 -1 -8 3 -5 6 6 6 11 1 17
-2 13 -5z m170 -40 c-3 -3 -12 -4 -19 -1 -8 3 -5 6 6 6 11 1 17 -2 13 -5z
m106 -11 c-7 -2 -21 -2 -30 0 -10 3 -4 5 12 5 17 0 24 -2 18 -5z"/>
<path d="M1603 1980 c-29 -12 -53 -60 -53 -105 0 -76 85 -120 144 -74 89 70
13 221 -91 179z m85 -32 c28 -31 37 -71 21 -100 -27 -51 -69 -61 -113 -27 -20
16 -26 29 -26 60 0 74 72 115 118 67z"/>
<path d="M1657 1897 c-8 -21 8 -39 29 -35 27 5 25 42 -2 46 -12 2 -24 -3 -27
-11z"/>
<path d="M1845 1728 c-34 -58 -36 -65 -26 -100 13 -42 0 -42 165 -7 92 19 138
47 149 89 6 22 -11 30 -61 30 -20 0 -68 12 -107 25 -38 14 -73 25 -76 25 -4 0
-23 -28 -44 -62z m138 11 c33 -11 74 -19 93 -19 39 0 43 -11 15 -39 -21 -21
-58 -33 -162 -52 -108 -20 -120 -4 -68 88 24 41 35 53 48 47 9 -3 42 -15 74
-25z"/>
<path d="M1412 1218 c-30 -30 -3 -83 39 -76 45 6 42 88 -4 88 -13 0 -28 -5
-35 -12z m53 -33 c0 -13 -8 -21 -22 -23 -19 -3 -23 1 -23 23 0 22 4 26 23 23
14 -2 22 -10 22 -23z"/>
<path d="M835 1156 c-15 -22 -15 -27 -1 -55 9 -16 33 -43 53 -58 31 -24 46
-28 99 -28 94 0 148 48 110 100 -14 19 -15 19 -63 2 -59 -21 -85 -14 -126 32
-33 37 -51 39 -72 7z m64 -25 c31 -43 79 -56 127 -36 44 18 64 14 64 -14 0
-24 -56 -51 -108 -51 -43 0 -93 28 -125 72 -17 22 -18 30 -7 43 18 21 26 19
49 -14z"/>
<path d="M1431 1071 c-15 -15 -21 -34 -21 -63 0 -139 -93 -228 -235 -228 -46
0 -65 -13 -65 -45 0 -34 20 -45 80 -45 93 0 156 24 215 84 61 61 88 128 89
225 1 54 -2 65 -21 78 -19 13 -24 12 -42 -6z m46 -85 c-8 -116 -54 -195 -139
-241 -45 -25 -65 -29 -128 -30 -68 0 -75 2 -75 20 0 17 9 21 61 27 73 8 129
30 166 65 35 33 68 120 68 176 0 47 14 69 38 60 12 -5 14 -20 9 -77z"/>
<path d="M922 958 c-46 -46 59 -158 148 -158 71 0 139 55 125 99 -9 28 -51 38
-74 17 -30 -27 -76 -20 -120 19 -41 37 -59 43 -79 23z m52 -23 c8 -22 67 -55
99 -55 16 0 42 8 58 17 22 13 32 14 40 6 44 -44 -89 -105 -154 -72 -35 18 -87
71 -87 89 0 31 33 42 44 15z"/>
</g>
</svg>
